# xmcd
# Track frame offsets:
# 150
# 20839
# 36990
# 49459
# 63643
# 79490
# 98467
# 115076
# 132959
# 148234
# 160479
# 178139
# 193690
#
# Disc length: 2769 seconds
# Revision: 0
# Processed by: cddbd v1.5.2PL0 Copyright (c) Steve Scherf et al.
# Submitted via: VisiTrax 2.10.3.257 - For more info visit www.synapsa.com
#
DISCID=c60acf0d
DTITLE=Skaggs, Ricky and The Whites - Salt of the Earth
DYEAR=2008
DGENRE=Bluegrass
TTITLE0=Love Will Be Enough
TTITLE1=Homesick for Heaven
TTITLE2=Big Wheel
TTITLE3=Salt of the Earth
TTITLE4=Wreck on the Highway
TTITLE5=Farther Along
TTITLE6=Let It Shine
TTITLE7=Near the Cross
TTITLE8=One Seed of Love
TTITLE9=This Old House
TTITLE10=Wings of a Dove
TTITLE11=Blessed Assurance
TTITLE12=The Solid Rock
EXTD=
EXTT0=
EXTT1=
EXTT2=
EXTT3=
EXTT4=
EXTT5=
EXTT6=
EXTT7=
EXTT8=
EXTT9=
EXTT10=
EXTT11=
EXTT12=
PLAYORDER=
